<?xml version="1.0" encoding="utf-8"?>
<!-- Generator: Adobe Illustrator 21.1.0, SVG Export Plug-In . SVG Version: 6.00 Build 0)  -->
<svg version="1.1" id="Слой_2" xmlns="http://www.w3.org/2000/svg" xmlns:xlink="http://www.w3.org/1999/xlink" x="0px" y="0px"
	 width="342px" height="148.24902px" viewBox="0 0 342 148.24902" enable-background="new 0 0 342 148.24902" xml:space="preserve">
<rect x="0.30078" y="7.6249" fill="#019444" width="111" height="111"/>
<rect x="116" y="7.6249" fill="#6D6E73" width="111" height="111"/>
<rect x="231" y="7.6249" fill="#019444" width="111" height="111"/>
<line fill="#6D6E73" stroke="#6D6E73" stroke-miterlimit="10" x1="0" y1="144.83887" x2="342" y2="144.83887"/>
<g>
	<path fill="#FFFFFF" d="M45.00977,83.12207L24.25293,21.74072h16.94824l14.21875,43.86182l24.56543-43.86182h14.91699
		L57.3877,86.93066c-4.82422,8.42188-9.40527,14.10254-13.74268,17.04395c-4.33838,2.94141-9.99756,4.41113-16.97998,4.41113
		h-5.77637l2.22168-13.45703h5.83984c3.76611,0,6.61133-0.65527,8.5376-1.96777c1.92529-1.31055,3.84033-3.5752,5.74463-6.79199
		L45.00977,83.12207z"/>
</g>
<g>
	<path fill="#FFFFFF" d="M133.18945,108.38574l14.47266-86.64502h62.27051l-14.47266,86.64502H179.9082l12.37793-73.94971h-31.23047
		l-12.37793,73.94971H133.18945z"/>
</g>
<g>
	<path fill="#FFFFFF" d="M257.18945,108.38574l14.47266-86.64502h47.16309l-2.22168,13.39355h-31.6748l-12.25098,73.25146H257.18945
		z"/>
</g>
<g>
	<path fill="#64666B" d="M6.19353,134.80333l-4.89275-9.34248h2.68345l3.38962,6.67596l2.78433-6.67596h2.33036l-4.29755,9.92216
		c-0.55132,1.27528-1.11625,2.13805-1.69481,2.58922c-0.57856,0.45023-1.41587,0.6763-2.51195,0.6763H3.05612v-2.0482h0.92811
		c0.61185,0,1.04917-0.1053,1.31146-0.314c0.26229-0.20964,0.49432-0.54973,0.69608-1.01926L6.19353,134.80333z"/>
	<path fill="#64666B" d="M24.49344,138.64853H21.7192l-2.90539-6.71461l-2.66327,3.38147v3.33315h-2.48169v-13.18768h2.48169
		v6.92715c0.31626-0.4705,0.54476-0.7961,0.68599-0.97578l4.56993-5.95136h2.51195l-3.26856,4.33791L24.49344,138.64853z"/>
	<path fill="#64666B" d="M28.83134,138.64853h-2.48169v-13.18768h5.63928c1.60755,0,2.79946,0.38741,3.57625,1.16418
		c0.77679,0.7758,1.16518,1.69169,1.16518,2.74863c0,1.2038-0.42017,2.1796-1.26102,2.92738
		c-0.84085,0.74681-1.90666,1.12071-3.19794,1.12071h-3.44006V138.64853z M28.83134,131.38322H31.767
		c0.7667,0,1.35181-0.18066,1.75534-0.54103c0.40353-0.36133,0.60529-0.84053,0.60529-1.43953
		c0-0.54103-0.18663-1.00478-0.55989-1.39124c-0.37326-0.38644-1.04765-0.57967-2.02267-0.57967h-2.71371V131.38322z"/>
	<path fill="#64666B" d="M48.62429,138.64853h-2.65318l-1.09961-3.13992h-5.29628l-1.07943,3.13992h-2.11851l4.56993-13.18768
		h3.05671L48.62429,138.64853z M44.20568,133.60533l-2.00754-5.88374l-2.00754,5.88374H44.20568z"/>
	<path fill="#64666B" d="M52.76044,137.45053v1.198h-2.48169v-13.18768h2.48169v7.40055c0,0.599-0.02371,1.26176-0.07062,1.99023
		c0.44388-0.89561,0.98511-1.77188,1.62419-2.62788l4.05544-5.42964v-1.33326h2.4716v13.18768h-2.4716v-6.83054
		c0-1.18546,0.02018-1.99023,0.06053-2.41533c-0.48423,0.92747-1.02899,1.7999-1.63428,2.61821L52.76044,137.45053z"/>
	<path fill="#64666B" d="M74.09688,138.64853h-2.48169v-5.72916h-5.25593v5.72916h-2.48168v-13.18768h2.48168v5.41999h5.25593
		v-5.41999h2.48169V138.64853z"/>
	<path fill="#64666B" d="M84.82058,134.06906l2.30009,0.24155c-0.14779,1.31973-0.68095,2.40662-1.59897,3.26068
		c-0.91802,0.85309-2.12356,1.28012-3.6166,1.28012c-1.25749,0-2.27841-0.30336-3.06175-0.90816
		c-0.78335-0.60576-1.38712-1.42697-1.81083-2.46364c-0.4237-1.03761-0.63555-2.18056-0.63555-3.42976
		c0-2.00954,0.49785-3.64424,1.49305-4.90311c0.99519-1.25983,2.36416-1.88878,4.10587-1.88878
		c1.36543,0,2.50186,0.40191,3.4098,1.20766c0.90793,0.80479,1.47942,1.95738,1.71498,3.45876l-2.30009,0.23186
		c-0.42371-1.99022-1.35837-2.98534-2.8045-2.98534c-0.92811,0-1.64941,0.41351-2.16391,1.24149
		c-0.5145,0.827-0.77174,2.02693-0.77174,3.59883c0,1.59702,0.27591,2.80273,0.82722,3.61815
		c0.55132,0.81445,1.2812,1.22215,2.18913,1.22215c0.72635,0,1.34525-0.27437,1.85622-0.8212
		C84.46397,135.48251,84.75349,134.82845,84.82058,134.06906z"/>
	<path fill="#64666B" d="M99.91245,138.64853h-2.77424l-2.90539-6.71461l-2.66328,3.38147v3.33315h-2.48168v-13.18768h2.48168
		v6.92715c0.31627-0.4705,0.54476-0.7961,0.686-0.97578l4.56993-5.95136h2.51195l-3.26856,4.33791L99.91245,138.64853z"/>
	<path fill="#64666B" d="M112.57308,138.64853h-2.65318l-1.09961-3.13992h-5.29628l-1.07943,3.13992h-2.11852l4.56993-13.18768
		h3.05671L112.57308,138.64853z M108.15447,133.60533l-2.00755-5.88374l-2.00754,5.88374H108.15447z"/>
	<path fill="#64666B" d="M121.73312,133.17056h-3.47033l-2.52203,5.47797h-2.49178l2.90539-5.91272
		c-1.68119-0.61253-2.52203-1.73613-2.52203-3.3718c0-1.21732,0.41512-2.17282,1.24588-2.86457
		c0.83076-0.69272,1.93542-1.03859,3.31396-1.03859h6.02263v13.18768h-2.48168V133.17056z M121.73312,127.38345h-3.13742
		c-0.78031,0-1.3735,0.16908-1.78056,0.50723c-0.40706,0.33813-0.61034,0.79318-0.61034,1.36707
		c0,0.56616,0.20832,1.04922,0.62547,1.4492c0.41715,0.399,1.06935,0.599,1.95711,0.599h2.94574V127.38345z"/>
	<path fill="#64666B" d="M132.41647,138.64853v-13.18768h9.85612v13.18768h-2.48169v-11.25542h-4.89275v11.25542H132.41647z"/>
	<path fill="#64666B" d="M156.10345,138.64853h-2.65318l-1.09961-3.13992h-5.29628l-1.07944,3.13992h-2.11852l4.56993-13.18768
		h3.05672L156.10345,138.64853z M151.68484,133.60533l-2.00755-5.88374l-2.00754,5.88374H151.68484z"/>
	<path fill="#64666B" d="M160.23959,138.64853h-2.48169v-13.18768h5.63928c1.60754,0,2.79945,0.38741,3.57625,1.16418
		c0.77678,0.7758,1.16518,1.69169,1.16518,2.74863c0,1.2038-0.42017,2.1796-1.26102,2.92738
		c-0.84085,0.74681-1.90666,1.12071-3.19794,1.12071h-3.44006V138.64853z M160.23959,131.38322h2.93565
		c0.76669,0,1.35181-0.18066,1.75534-0.54103c0.40352-0.36133,0.60529-0.84053,0.60529-1.43953
		c0-0.54103-0.18663-1.00478-0.55989-1.39124c-0.37326-0.38644-1.04765-0.57967-2.02267-0.57967h-2.71371V131.38322z"/>
	<path fill="#64666B" d="M174.94812,138.64853h-2.66328v-11.14915h-3.66199v-2.03853h9.98726v2.03853h-3.66199V138.64853z"/>
	<path fill="#64666B" d="M190.34264,138.64853h-2.48169v-5.72916h-5.25592v5.72916h-2.48169v-13.18768h2.48169v5.41999h5.25592
		v-5.41999h2.48169V138.64853z"/>
	<path fill="#64666B" d="M202.31726,138.64853h-8.94818v-13.18768h8.85739v1.96124h-6.3757v3.57468h5.12477v1.91293h-5.12477
		v3.69061h6.46649V138.64853z"/>
	<path fill="#64666B" d="M206.93764,138.64853h-2.48169v-13.18768h5.63928c1.60754,0,2.79947,0.38741,3.57625,1.16418
		c0.77679,0.7758,1.16518,1.69169,1.16518,2.74863c0,1.2038-0.42017,2.1796-1.26102,2.92738
		c-0.84084,0.74681-1.90666,1.12071-3.19794,1.12071h-3.44006V138.64853z M206.93764,131.38322h2.93565
		c0.76669,0,1.35181-0.18066,1.75534-0.54103c0.40352-0.36133,0.60529-0.84053,0.60529-1.43953
		c0-0.54103-0.18663-1.00478-0.55989-1.39124c-0.37326-0.38644-1.04765-0.57967-2.02267-0.57967h-2.71371V131.38322z"/>
	<path fill="#64666B" d="M224.53137,134.06906l2.30009,0.24155c-0.14778,1.31973-0.68094,2.40662-1.59897,3.26068
		c-0.91801,0.85309-2.12355,1.28012-3.61659,1.28012c-1.25749,0-2.27841-0.30336-3.06177-0.90816
		c-0.78334-0.60576-1.38712-1.42697-1.81082-2.46364c-0.42369-1.03761-0.63554-2.18056-0.63554-3.42976
		c0-2.00954,0.49785-3.64424,1.49304-4.90311c0.99519-1.25983,2.36415-1.88878,4.10588-1.88878
		c1.36543,0,2.50186,0.40191,3.40979,1.20766c0.90793,0.80479,1.47943,1.95738,1.71498,3.45876l-2.30009,0.23186
		c-0.42371-1.99022-1.35837-2.98534-2.8045-2.98534c-0.92812,0-1.64941,0.41351-2.16391,1.24149
		c-0.5145,0.827-0.77174,2.02693-0.77174,3.59883c0,1.59702,0.27591,2.80273,0.82722,3.61815
		c0.55133,0.81445,1.2812,1.22215,2.18913,1.22215c0.72635,0,1.34526-0.27437,1.85622-0.8212
		C224.17476,135.48251,224.46429,134.82845,224.53137,134.06906z"/>
	<path fill="#64666B" d="M239.62325,138.64853H236.849l-2.90538-6.71461l-2.66327,3.38147v3.33315h-2.48169v-13.18768h2.48169
		v6.92715c0.31625-0.4705,0.54475-0.7961,0.68599-0.97578l4.56993-5.95136h2.51195l-3.26855,4.33791L239.62325,138.64853z"/>
	<path fill="#64666B" d="M252.28438,138.64853h-2.65318l-1.09961-3.13992h-5.29678l-1.07942,3.13992h-2.11852l4.56993-13.18768
		h3.05721L252.28438,138.64853z M247.86577,133.60533l-2.00804-5.88374l-2.00754,5.88374H247.86577z"/>
	<path fill="#64666B" d="M261.44443,133.17056h-3.47034l-2.52203,5.47797h-2.49178l2.9054-5.91272
		c-1.6817-0.61253-2.52203-1.73613-2.52203-3.3718c0-1.21732,0.41562-2.17282,1.24588-2.86457
		c0.83026-0.69272,1.93492-1.03859,3.31395-1.03859h6.02264v13.18768h-2.48169V133.17056z M261.44443,127.38345h-3.13742
		c-0.77982,0-1.37399,0.16908-1.78055,0.50723c-0.40656,0.33813-0.61035,0.79318-0.61035,1.36707
		c0,0.56616,0.20883,1.04922,0.62546,1.4492c0.41666,0.399,1.06937,0.599,1.95712,0.599h2.94574V127.38345z"/>
	<path fill="#64666B" d="M272.12778,138.64853v-13.18768h7.47531v2.03853h-4.99362v11.14915H272.12778z"/>
	<path fill="#64666B" d="M283.59799,138.64853h-2.48169v-13.18768h5.63928c1.60706,0,2.79947,0.38741,3.57626,1.16418
		c0.77679,0.7758,1.16516,1.69169,1.16516,2.74863c0,1.2038-0.42065,2.1796-1.26102,2.92738
		c-0.84033,0.74681-1.90665,1.12071-3.19794,1.12071h-3.44006V138.64853z M283.59799,131.38322h2.93567
		c0.76669,0,1.35181-0.18066,1.75534-0.54103c0.4035-0.36133,0.60529-0.84053,0.60529-1.43953
		c0-0.54103-0.18665-1.00478-0.55991-1.39124c-0.37326-0.38644-1.04715-0.57967-2.02267-0.57967h-2.71371V131.38322z"/>
	<path fill="#64666B" d="M296.6218,134.80333l-4.89276-9.34248h2.68347l3.38962,6.67596l2.78433-6.67596h2.33035l-4.29755,9.92216
		c-0.55182,1.27528-1.11676,2.13805-1.69482,2.58922c-0.57803,0.45023-1.41537,0.6763-2.51193,0.6763h-0.92813v-2.0482h0.92813
		c0.61234,0,1.04916-0.1053,1.31146-0.314c0.26227-0.20964,0.49429-0.54973,0.69608-1.01926L296.6218,134.80333z"/>
	<path fill="#64666B" d="M304.09711,138.64853v-13.18768h9.85614v13.18768h-2.48169v-11.25542h-4.89276v11.25542H304.09711z"/>
	<path fill="#64666B" d="M316.97968,138.64853v-13.18768h9.85614v13.18768h-2.48169v-11.25542h-4.89276v11.25542H316.97968z"/>
	<path fill="#64666B" d="M340.66666,138.64853h-2.65317l-1.09961-3.13992h-5.2963l-1.07941,3.13992h-2.11853l4.56995-13.18768
		h3.0567L340.66666,138.64853z M336.24805,133.60533l-2.00754-5.88374l-2.00754,5.88374H336.24805z"/>
</g>
</svg>
