<?xml version="1.0" encoding="utf-8"?>
<!-- Generator: Adobe Illustrator 21.1.0, SVG Export Plug-In . SVG Version: 6.00 Build 0)  -->
<svg version="1.1" xmlns="http://www.w3.org/2000/svg" xmlns:xlink="http://www.w3.org/1999/xlink" x="0px" y="0px"
	 width="354.33334px" height="148.5px" viewBox="0 0 354.33334 148.5" enable-background="new 0 0 354.33334 148.5"
	 xml:space="preserve">
<g id="Слой_3">
	<g>
		<rect fill="#FFFFFF" width="354.33334" height="148.5"/>
	</g>
</g>
<g id="Слой_2">
	<rect x="6.30078" y="6.53603" fill="#019444" width="111" height="111"/>
	<rect x="122" y="6.53603" fill="#6D6E73" width="111" height="111"/>
	<rect x="237" y="6.53603" fill="#019444" width="111" height="111"/>
	<line fill="#6D6E73" stroke="#6D6E73" stroke-miterlimit="10" x1="6" y1="143.75" x2="348" y2="143.75"/>
	<g>
		<path fill="#FFFFFF" d="M51.00977,82.0332L30.25293,20.65186h16.94824l14.21875,43.86182l24.56543-43.86182h14.91699
			L63.3877,85.8418c-4.82422,8.42188-9.40527,14.10254-13.74268,17.04395c-4.33838,2.94141-9.99756,4.41113-16.97998,4.41113
			h-5.77637l2.22168-13.45703h5.83984c3.76611,0,6.61133-0.65527,8.5376-1.96777c1.92529-1.31055,3.84033-3.5752,5.74463-6.79199
			L51.00977,82.0332z"/>
	</g>
	<g>
		<path fill="#FFFFFF" d="M139.18945,107.29688l14.47266-86.64502h62.27051l-14.47266,86.64502H185.9082l12.37793-73.94971
			h-31.23047l-12.37793,73.94971H139.18945z"/>
	</g>
	<g>
		<path fill="#FFFFFF" d="M263.18945,107.29688l14.47266-86.64502h47.16309l-2.22168,13.39355h-31.6748l-12.25098,73.25146
			H263.18945z"/>
	</g>
	<g>
		<path fill="#64666B" d="M12.19353,133.71446l-4.89275-9.34248h2.68345l3.38962,6.67596l2.78433-6.67596h2.33036l-4.29755,9.92216
			c-0.55132,1.27528-1.11625,2.13805-1.69481,2.58922c-0.57856,0.45023-1.41587,0.6763-2.51195,0.6763H9.05612v-2.0482h0.92811
			c0.61185,0,1.04917-0.1053,1.31146-0.314c0.26229-0.20964,0.49432-0.54973,0.69608-1.01926L12.19353,133.71446z"/>
		<path fill="#64666B" d="M30.49344,137.55966H27.7192l-2.90539-6.71461l-2.66327,3.38147v3.33315h-2.48169v-13.18768h2.48169
			v6.92715c0.31626-0.4705,0.54476-0.7961,0.68599-0.97578l4.56993-5.95136h2.51195l-3.26856,4.33791L30.49344,137.55966z"/>
		<path fill="#64666B" d="M34.83134,137.55966h-2.48169v-13.18768h5.63927c1.60755,0,2.79946,0.38741,3.57625,1.16418
			c0.77679,0.7758,1.16518,1.69169,1.16518,2.74863c0,1.2038-0.42017,2.1796-1.26102,2.92738
			c-0.84085,0.74681-1.90666,1.12071-3.19794,1.12071h-3.44006V137.55966z M34.83134,130.29436h2.93565
			c0.7667,0,1.35181-0.18066,1.75534-0.54103c0.40353-0.36133,0.60529-0.84053,0.60529-1.43953
			c0-0.54104-0.18663-1.00478-0.55989-1.39123s-1.04765-0.57968-2.02267-0.57968h-2.71371V130.29436z"/>
		<path fill="#64666B" d="M54.62429,137.55966h-2.65318l-1.09961-3.13992h-5.29628l-1.07943,3.13992h-2.11851l4.56993-13.18768
			h3.05671L54.62429,137.55966z M50.20568,132.51646l-2.00754-5.88374l-2.00754,5.88374H50.20568z"/>
		<path fill="#64666B" d="M58.76044,136.36166v1.198h-2.48169v-13.18768h2.48169v7.40055c0,0.599-0.02371,1.26176-0.07062,1.99023
			c0.44388-0.89561,0.98511-1.77188,1.62419-2.62788l4.05544-5.42964v-1.33326h2.4716v13.18768h-2.4716v-6.83054
			c0-1.18546,0.02018-1.99023,0.06053-2.41533c-0.48423,0.92747-1.02899,1.7999-1.63428,2.61821L58.76044,136.36166z"/>
		<path fill="#64666B" d="M80.09688,137.55966h-2.48169v-5.72916h-5.25593v5.72916h-2.48168v-13.18768h2.48168v5.41999h5.25593
			v-5.41999h2.48169V137.55966z"/>
		<path fill="#64666B" d="M90.82058,132.98019l2.30009,0.24155c-0.14779,1.31973-0.68095,2.40662-1.59897,3.26068
			c-0.91802,0.85309-2.12356,1.28012-3.6166,1.28012c-1.25749,0-2.27841-0.30336-3.06175-0.90816
			c-0.78335-0.60576-1.38712-1.42697-1.81083-2.46364c-0.4237-1.03761-0.63555-2.18056-0.63555-3.42976
			c0-2.00954,0.49785-3.64423,1.49305-4.90311c0.99519-1.25983,2.36416-1.88878,4.10587-1.88878
			c1.36543,0,2.50186,0.40191,3.4098,1.20766c0.90793,0.80479,1.47942,1.95738,1.71498,3.45876l-2.30009,0.23186
			c-0.42371-1.99022-1.35837-2.98534-2.8045-2.98534c-0.92811,0-1.64941,0.41351-2.16391,1.24148
			c-0.5145,0.827-0.77174,2.02694-0.77174,3.59884c0,1.59702,0.27591,2.80273,0.82722,3.61815
			c0.55132,0.81445,1.2812,1.22215,2.18913,1.22215c0.72635,0,1.34525-0.27437,1.85622-0.8212
			C90.46397,134.39365,90.75349,133.73958,90.82058,132.98019z"/>
		<path fill="#64666B" d="M105.91245,137.55966h-2.77424l-2.90539-6.71461l-2.66328,3.38147v3.33315h-2.48168v-13.18768h2.48168
			v6.92715c0.31627-0.4705,0.54476-0.7961,0.686-0.97578l4.56993-5.95136h2.51195l-3.26856,4.33791L105.91245,137.55966z"/>
		<path fill="#64666B" d="M118.57308,137.55966h-2.65318l-1.09961-3.13992h-5.29628l-1.07943,3.13992h-2.11852l4.56993-13.18768
			h3.05671L118.57308,137.55966z M114.15447,132.51646l-2.00755-5.88374l-2.00754,5.88374H114.15447z"/>
		<path fill="#64666B" d="M127.73312,132.0817h-3.47033l-2.52203,5.47797h-2.49178l2.90539-5.91272
			c-1.68119-0.61253-2.52203-1.73613-2.52203-3.3718c0-1.21732,0.41512-2.17282,1.24588-2.86457
			c0.83076-0.69272,1.93542-1.03859,3.31396-1.03859h6.02264v13.18768h-2.48169V132.0817z M127.73312,126.29458h-3.13742
			c-0.78031,0-1.3735,0.16908-1.78056,0.50723c-0.40706,0.33814-0.61034,0.79319-0.61034,1.36707
			c0,0.56616,0.20832,1.04922,0.62547,1.4492c0.41715,0.399,1.06935,0.599,1.95711,0.599h2.94574V126.29458z"/>
		<path fill="#64666B" d="M138.41647,137.55966v-13.18768h9.85612v13.18768h-2.48169v-11.25542h-4.89275v11.25542H138.41647z"/>
		<path fill="#64666B" d="M162.10345,137.55966h-2.65318l-1.09961-3.13992h-5.29628l-1.07944,3.13992h-2.11852l4.56993-13.18768
			h3.05672L162.10345,137.55966z M157.68484,132.51646l-2.00755-5.88374l-2.00754,5.88374H157.68484z"/>
		<path fill="#64666B" d="M166.23959,137.55966h-2.48169v-13.18768h5.63928c1.60754,0,2.79945,0.38741,3.57625,1.16418
			c0.77678,0.7758,1.16518,1.69169,1.16518,2.74863c0,1.2038-0.42017,2.1796-1.26102,2.92738
			c-0.84085,0.74681-1.90666,1.12071-3.19794,1.12071h-3.44006V137.55966z M166.23959,130.29436h2.93565
			c0.76669,0,1.35181-0.18066,1.75534-0.54103c0.40352-0.36133,0.60529-0.84053,0.60529-1.43953
			c0-0.54104-0.18663-1.00478-0.55989-1.39123s-1.04765-0.57968-2.02267-0.57968h-2.71371V130.29436z"/>
		<path fill="#64666B" d="M180.94812,137.55966h-2.66328v-11.14915h-3.66199v-2.03853h9.98726v2.03853h-3.66199V137.55966z"/>
		<path fill="#64666B" d="M196.34264,137.55966h-2.48169v-5.72916h-5.25592v5.72916h-2.48169v-13.18768h2.48169v5.41999h5.25592
			v-5.41999h2.48169V137.55966z"/>
		<path fill="#64666B" d="M208.31726,137.55966h-8.94818v-13.18768h8.85739v1.96124h-6.3757v3.57468h5.12477v1.91293h-5.12477
			v3.69061h6.46649V137.55966z"/>
		<path fill="#64666B" d="M212.93764,137.55966h-2.48169v-13.18768h5.63928c1.60754,0,2.79947,0.38741,3.57625,1.16418
			c0.77679,0.7758,1.16518,1.69169,1.16518,2.74863c0,1.2038-0.42017,2.1796-1.26102,2.92738
			c-0.84084,0.74681-1.90666,1.12071-3.19794,1.12071h-3.44006V137.55966z M212.93764,130.29436h2.93565
			c0.76669,0,1.35181-0.18066,1.75534-0.54103c0.40352-0.36133,0.60529-0.84053,0.60529-1.43953
			c0-0.54104-0.18663-1.00478-0.55989-1.39123s-1.04765-0.57968-2.02267-0.57968h-2.71371V130.29436z"/>
		<path fill="#64666B" d="M230.53137,132.98019l2.30009,0.24155c-0.14778,1.31973-0.68094,2.40662-1.59897,3.26068
			c-0.91801,0.85309-2.12355,1.28012-3.61659,1.28012c-1.25749,0-2.27841-0.30336-3.06177-0.90816
			c-0.78334-0.60576-1.38712-1.42697-1.81082-2.46364c-0.42369-1.03761-0.63554-2.18056-0.63554-3.42976
			c0-2.00954,0.49785-3.64423,1.49304-4.90311c0.99519-1.25983,2.36415-1.88878,4.10588-1.88878
			c1.36543,0,2.50186,0.40191,3.40979,1.20766c0.90793,0.80479,1.47943,1.95738,1.71498,3.45876l-2.30009,0.23186
			c-0.42371-1.99022-1.35837-2.98534-2.8045-2.98534c-0.92812,0-1.64941,0.41351-2.16391,1.24148
			c-0.5145,0.827-0.77174,2.02694-0.77174,3.59884c0,1.59702,0.27591,2.80273,0.82722,3.61815
			c0.55133,0.81445,1.2812,1.22215,2.18913,1.22215c0.72635,0,1.34526-0.27437,1.85622-0.8212
			C230.17476,134.39365,230.46429,133.73958,230.53137,132.98019z"/>
		<path fill="#64666B" d="M245.62325,137.55966H242.849l-2.90538-6.71461l-2.66327,3.38147v3.33315h-2.48169v-13.18768h2.48169
			v6.92715c0.31625-0.4705,0.54475-0.7961,0.68599-0.97578l4.56993-5.95136h2.51195l-3.26855,4.33791L245.62325,137.55966z"/>
		<path fill="#64666B" d="M258.28439,137.55966h-2.6532l-1.09961-3.13992h-5.29678l-1.07942,3.13992h-2.11852l4.56993-13.18768
			h3.05721L258.28439,137.55966z M253.86577,132.51646l-2.00804-5.88374l-2.00754,5.88374H253.86577z"/>
		<path fill="#64666B" d="M267.44443,132.0817h-3.47034l-2.52203,5.47797h-2.49176l2.90536-5.91272
			c-1.68167-0.61253-2.52203-1.73613-2.52203-3.3718c0-1.21732,0.41565-2.17282,1.24588-2.86457
			c0.83026-0.69272,1.93494-1.03859,3.31396-1.03859h6.02264v13.18768h-2.48169V132.0817z M267.44443,126.29458h-3.13742
			c-0.77982,0-1.37399,0.16908-1.78055,0.50723c-0.40656,0.33814-0.61035,0.79319-0.61035,1.36707
			c0,0.56616,0.20883,1.04922,0.62546,1.4492c0.41666,0.399,1.06937,0.599,1.95712,0.599h2.94574V126.29458z"/>
		<path fill="#64666B" d="M278.12778,137.55966v-13.18768h7.47531v2.03853h-4.99362v11.14915H278.12778z"/>
		<path fill="#64666B" d="M289.59799,137.55966h-2.48169v-13.18768h5.63928c1.60706,0,2.79947,0.38741,3.57626,1.16418
			c0.77679,0.7758,1.16516,1.69169,1.16516,2.74863c0,1.2038-0.42065,2.1796-1.26102,2.92738
			c-0.84033,0.74681-1.90665,1.12071-3.19794,1.12071h-3.44006V137.55966z M289.59799,130.29436h2.93567
			c0.76669,0,1.35181-0.18066,1.75534-0.54103c0.4035-0.36133,0.60529-0.84053,0.60529-1.43953
			c0-0.54104-0.18665-1.00478-0.55991-1.39123s-1.04715-0.57968-2.02267-0.57968h-2.71371V130.29436z"/>
		<path fill="#64666B" d="M302.6218,133.71446l-4.89276-9.34248h2.68347l3.38962,6.67596l2.78433-6.67596h2.33035l-4.29755,9.92216
			c-0.55182,1.27528-1.11676,2.13805-1.69482,2.58922c-0.57803,0.45023-1.41537,0.6763-2.51193,0.6763h-0.92813v-2.0482h0.92813
			c0.61234,0,1.04916-0.1053,1.31146-0.314c0.26227-0.20964,0.49429-0.54973,0.69608-1.01926L302.6218,133.71446z"/>
		<path fill="#64666B" d="M310.09711,137.55966v-13.18768h9.85614v13.18768h-2.48169v-11.25542h-4.89276v11.25542H310.09711z"/>
		<path fill="#64666B" d="M322.97968,137.55966v-13.18768h9.85614v13.18768h-2.48169v-11.25542h-4.89276v11.25542H322.97968z"/>
		<path fill="#64666B" d="M346.66666,137.55966h-2.65317l-1.09961-3.13992h-5.2963l-1.07941,3.13992h-2.11853l4.56995-13.18768
			h3.0567L346.66666,137.55966z M342.24805,132.51646l-2.00754-5.88374l-2.00754,5.88374H342.24805z"/>
	</g>
</g>
</svg>
